# xmcd
#
# Track frame offsets:
#	150
#	12142
#	21187
#	30792
#	51355
#	64992
#	75042
#	93965
#	106180
#	119662
#	135565
#	146102
#	158177
#	169720
#	178487
#	189290
#	199592
#	212922
#	222600
#	231455
#	243105
#	257035
#
# Disc length: 3587 seconds
#
# Revision: 1
# Processed by: cddbd v1.5.2PL0 Copyright (c) Steve Scherf et al.
# Submitted via: audiograbber 1.83.01
#
DISCID=330e0116
DTITLE=Various Artists Country - Bluegrass Country
DYEAR=1998
DGENRE=Country
TTITLE0=Pike County Breakdown
TTITLE1=Stoney Point
TTITLE2=Lady Madonna
TTITLE3=Washington County
TTITLE4=Chereokee Shuffle
TTITLE5=Katy Hill
TTITLE6=Lonesome Whistle
TTITLE7=Clinch Mountain Backstep
TTITLE8=Cry Cry Darlin'
TTITLE9=Caravan
TTITLE10=Angeline The Baker
TTITLE11=Darlin' Corey
TTITLE12=Wheel Hoss
TTITLE13=Stone Fox Chase
TTITLE14=Fireball Mail
TTITLE15=Ground Speed
TTITLE16=Gold Rush
TTITLE17=Don't Think Twice
TTITLE18=Big Country
TTITLE19=Salt Creek
TTITLE20=Rebecca
TTITLE21=Highway Of Regret
EXTD=
EXTT0=
EXTT1=
EXTT2=
EXTT3=
EXTT4=
EXTT5=
EXTT6=
EXTT7=
EXTT8=
EXTT9=
EXTT10=
EXTT11=
EXTT12=
EXTT13=
EXTT14=
EXTT15=
EXTT16=
EXTT17=
EXTT18=
EXTT19=
EXTT20=
EXTT21=
PLAYORDER=
